<?xml version="1.0" encoding="UTF-8"?>
<svg xmlns="http://www.w3.org/2000/svg" xmlns:xlink="http://www.w3.org/1999/xlink" width="58.1pt" height="31.88pt" viewBox="0 0 58.1 31.88" version="1.1">
<defs>
<clipPath id="clip1">
  <path d="M 12 0 L 45 0 L 45 31.878906 L 12 31.878906 Z M 12 0 "/>
</clipPath>
<clipPath id="clip2">
  <path d="M 35 4 L 58.101563 4 L 58.101563 31.878906 L 35 31.878906 Z M 35 4 "/>
</clipPath>
<clipPath id="clip3">
  <path d="M 0 22 L 45 22 L 45 31.878906 L 0 31.878906 Z M 0 22 "/>
</clipPath>
</defs>
<g id="surface1">
<g clip-path="url(#clip1)" clip-rule="nonzero">
<path style=" stroke:none;fill-rule:nonzero;fill:rgb(25.898743%,25.898743%,25.898743%);fill-opacity:1;" d="M 34.726563 16.90625 C 34.332031 19.46875 32.238281 21.5625 29.675781 21.957031 C 25.5625 22.585938 22.070313 19.09375 22.699219 14.980469 C 23.089844 12.414063 25.1875 10.320313 27.75 9.929688 C 31.863281 9.296875 35.355469 12.789063 34.726563 16.90625 M 28.710938 0.00390625 C 19.910156 0.00390625 12.773438 7.140625 12.773438 15.941406 C 12.773438 24.742188 19.910156 31.878906 28.710938 31.878906 C 37.515625 31.878906 44.652344 24.742188 44.652344 15.941406 C 44.652344 7.140625 37.515625 0.00390625 28.710938 0.00390625 "/>
</g>
<g clip-path="url(#clip2)" clip-rule="nonzero">
<path style=" stroke:none;fill-rule:nonzero;fill:rgb(25.898743%,25.898743%,25.898743%);fill-opacity:1;" d="M 54.179688 8.902344 C 48.953125 3.675781 40.347656 3.675781 35.121094 8.902344 L 42.085938 15.867188 C 43.492188 14.460938 45.808594 14.460938 47.214844 15.867188 C 48.621094 17.273438 48.621094 19.589844 47.214844 20.996094 C 45.808594 22.402344 43.492188 22.402344 42.085938 20.996094 L 35.121094 27.960938 C 40.347656 33.1875 48.953125 33.1875 54.179688 27.960938 C 59.40625 22.734375 59.40625 14.128906 54.179688 8.902344 "/>
</g>
<g clip-path="url(#clip3)" clip-rule="nonzero">
<path style=" stroke:none;fill-rule:nonzero;fill:rgb(25.898743%,25.898743%,25.898743%);fill-opacity:1;" d="M 4.925781 22.03125 L 44.648438 22.03125 L 44.648438 31.878906 L 4.925781 31.878906 C 2.207031 31.878906 0 29.675781 0 26.953125 C 0 24.234375 2.207031 22.03125 4.925781 22.03125 "/>
</g>
</g>
</svg>
